<?xml version="1.0" standalone="no"?>
<!DOCTYPE svg PUBLIC "-//W3C//DTD SVG 20010904//EN"
 "http://www.w3.org/TR/2001/REC-SVG-20010904/DTD/svg10.dtd">
<svg version="1.0" xmlns="http://www.w3.org/2000/svg"
 width="2400.000000pt" height="612.000000pt" viewBox="0 0 2400.000000 612.000000"
 preserveAspectRatio="xMidYMid meet">

<g transform="translate(0.000000,612.000000) scale(0.100000,-0.100000)"
fill="#000000" stroke="none">
<path d="M0 3060 l0 -3060 12000 0 12000 0 0 3060 0 3060 -12000 0 -12000 0 0
-3060z m4925 1897 c268 -78 465 -277 542 -548 17 -60 18 -135 18 -1349 0
-1214 -1 -1289 -18 -1349 -83 -294 -307 -502 -596 -557 -65 -12 -265 -14
-1332 -11 -1360 3 -1266 -1 -1407 56 -169 68 -336 236 -406 407 -57 141 -56
103 -56 1458 0 1072 2 1255 15 1317 65 307 321 548 630 592 17 2 597 4 1290 3
1167 -1 1264 -2 1320 -19z m4426 -902 c404 -70 662 -338 734 -759 30 -177 16
-449 -32 -616 -94 -331 -355 -558 -708 -615 -116 -19 -339 -19 -446 0 -301 52
-523 214 -650 473 -137 280 -142 736 -10 1026 121 266 346 435 655 491 99 18
354 18 457 0z m6123 -5 c291 -42 485 -155 570 -333 65 -136 66 -149 66 -917
l0 -690 -295 0 -294 0 -3 95 -3 95 -75 -61 c-82 -68 -220 -140 -315 -164 -84
-22 -281 -22 -365 0 -186 48 -335 191 -396 380 -22 67 -26 100 -27 200 -1 269
96 433 326 545 161 79 316 111 691 145 94 9 172 18 174 20 9 8 -18 118 -36
149 -28 48 -102 92 -190 113 -57 13 -115 18 -222 17 -164 -1 -245 -18 -448
-94 -61 -23 -119 -40 -127 -36 -13 5 -15 37 -13 233 l3 228 100 22 c127 28
266 52 375 63 106 11 398 5 504 -10z m6076 4 c222 -42 386 -141 492 -298 112
-164 158 -356 158 -663 l0 -143 -650 0 c-612 0 -650 -1 -650 -17 1 -44 31
-155 55 -203 83 -163 248 -241 515 -243 110 -1 151 3 224 22 132 34 250 87
363 163 23 16 55 28 72 28 l31 0 -2 -247 -3 -246 -100 -38 c-109 -42 -268 -82
-385 -99 -114 -17 -397 -14 -525 5 -122 18 -288 69 -375 116 -250 133 -409
372 -450 677 -18 128 -8 371 19 481 97 389 364 641 749 706 112 19 362 18 462
-1z m-13616 -40 c14 -5 16 -37 16 -254 l0 -247 -86 -6 c-157 -11 -211 -56
-294 -245 -28 -65 -64 -130 -79 -147 l-28 -30 283 -460 c155 -253 290 -472
299 -487 l16 -28 -339 0 -340 0 -222 375 -222 375 -79 0 -79 0 0 -375 0 -375
-295 0 -295 0 0 950 0 950 295 0 295 0 0 -381 0 -382 66 6 c128 12 179 56 256
217 145 305 157 326 211 386 79 86 173 133 312 154 62 9 288 12 309 4z m10360
0 c14 -5 16 -37 16 -254 l0 -247 -86 -6 c-156 -11 -209 -55 -289 -239 -27 -62
-63 -127 -78 -145 -16 -18 -27 -39 -24 -46 3 -8 132 -219 286 -471 155 -252
286 -466 291 -477 10 -19 3 -19 -328 -19 l-338 0 -221 373 -221 372 -81 3 -81
3 0 -376 0 -375 -295 0 -295 0 0 950 0 950 295 0 295 0 0 -380 0 -380 43 0
c24 0 68 7 98 16 74 22 118 73 186 214 144 300 154 318 209 378 68 76 162 125
280 146 80 14 309 21 338 10z m-7284 -334 l0 -330 308 2 307 3 3 328 2 327
295 0 295 0 0 -950 0 -950 -295 0 -295 0 0 405 0 405 -310 0 -310 0 0 -405 0
-405 -295 0 -295 0 0 950 0 950 295 0 295 0 0 -330z m3220 125 l0 -205 -295 0
-295 0 0 -745 0 -745 -295 0 -295 0 0 745 0 745 -295 0 -295 0 0 205 0 205
885 0 885 0 0 -205z m5970 0 l0 -205 -295 0 -295 0 0 -745 0 -745 -295 0 -295
0 0 745 0 745 -295 0 -295 0 0 205 0 205 885 0 885 0 0 -205z"/>
<path d="M2840 3040 l0 -1070 493 0 c615 0 696 9 862 91 159 79 273 202 325
350 28 81 38 251 21 341 -35 177 -172 322 -356 374 -36 10 -65 21 -65 24 0 3
21 16 47 30 144 76 243 253 243 435 0 185 -86 333 -239 409 -161 81 -212 86
-827 86 l-504 0 0 -1070z m859 669 c105 -22 161 -93 161 -202 0 -84 -17 -132
-61 -172 -56 -51 -119 -65 -281 -65 l-138 0 0 225 0 225 135 0 c73 0 157 -5
184 -11z m141 -834 c115 -46 154 -106 154 -235 0 -98 -19 -146 -78 -198 -60
-53 -142 -71 -352 -78 l-184 -7 0 273 0 272 208 -4 c170 -4 215 -8 252 -23z"/>
<path d="M9017 3636 c-135 -38 -216 -156 -253 -369 -21 -119 -14 -390 11 -487
56 -213 162 -305 350 -304 187 1 300 103 351 319 21 88 25 397 5 494 -25 128
-60 201 -125 266 -39 38 -76 65 -101 73 -62 20 -183 24 -238 8z"/>
<path d="M15350 2984 c-268 -30 -380 -89 -410 -214 -28 -118 10 -226 95 -269
45 -23 61 -26 165 -26 105 0 120 2 174 28 33 15 79 42 103 60 l42 32 1 203 0
202 -27 -1 c-16 -1 -80 -8 -143 -15z"/>
<path d="M21153 3676 c-141 -46 -231 -161 -249 -321 l-7 -55 359 2 359 3 -4
55 c-5 78 -36 172 -74 222 -20 26 -55 54 -91 73 -51 26 -71 30 -155 32 -61 2
-111 -2 -138 -11z"/>
</g>
</svg>
